<svg width="621" height="697" viewBox="0 0 621 697" fill="none" xmlns="http://www.w3.org/2000/svg">
<path d="M145.918 696.641L129.202 692.105L141.488 679.896L145.918 696.641ZM618.7 71.4578C616.595 70.3106 614.492 69.1792 612.392 68.0633L613.799 65.4139C615.909 66.5348 618.021 67.6713 620.136 68.8235L618.7 71.4578ZM599.818 61.554C595.637 59.4462 591.466 57.3999 587.306 55.4145L588.598 52.707C592.778 54.7018 596.968 56.7576 601.169 58.8752L599.818 61.554ZM574.857 49.6405C570.493 47.6746 566.14 45.7757 561.801 43.943L562.968 41.1793C567.329 43.0213 571.703 44.9297 576.089 46.9052L574.857 49.6405ZM548.817 38.6407C544.501 36.9389 540.2 35.3026 535.912 33.7308L536.944 30.9141C541.255 32.4943 545.58 34.1393 549.917 35.8499L548.817 38.6407ZM522.646 29.0585C518.166 27.545 513.702 26.102 509.254 24.7286L510.139 21.8621C514.612 23.2433 519.101 24.6944 523.606 26.2163L522.646 29.0585ZM495.96 20.8161C491.437 19.5506 486.931 18.3571 482.444 17.2346L483.172 14.3243C487.686 15.4535 492.219 16.6541 496.768 17.927L495.96 20.8161ZM468.731 14.0115C464.179 13.0108 459.648 12.0833 455.136 11.2279L455.695 8.28045C460.235 9.14122 464.795 10.0746 469.375 11.0815L468.731 14.0115ZM441.372 8.83095C436.707 8.09072 432.064 7.42796 427.445 6.84141L427.823 3.86531C432.473 4.45579 437.146 5.12294 441.842 5.868L441.372 8.83095ZM413.66 5.3092C408.98 4.86342 404.325 4.49626 399.697 4.20641L399.885 1.21228C404.545 1.50417 409.232 1.87388 413.945 2.32272L413.66 5.3092ZM385.684 3.56125C381.041 3.42495 376.426 3.36693 371.84 3.3858L371.828 0.385831C376.448 0.366818 381.096 0.425255 385.772 0.562546L385.684 3.56125ZM357.778 3.68677C353.095 3.86853 348.444 4.13112 343.826 4.473L343.604 1.48117C348.258 1.13671 352.944 0.872141 357.662 0.689014L357.778 3.68677ZM330.011 5.74144C325.323 6.25599 320.671 6.85302 316.056 7.53086L315.62 4.56272C320.271 3.87955 324.96 3.27787 329.684 2.75935L330.011 5.74144ZM302.321 9.80517C297.719 10.6543 293.156 11.5847 288.633 12.5947L287.979 9.66678C292.539 8.64868 297.139 7.71084 301.777 6.85496L302.321 9.80517ZM275.031 15.9017C270.538 17.0842 266.087 18.3464 261.68 19.6863L260.807 16.816C265.251 15.4651 269.738 14.1927 274.267 13.0005L275.031 15.9017ZM248.322 24.0293C243.914 25.5569 239.552 27.1636 235.238 28.8475L234.147 26.0528C238.497 24.3549 242.895 22.7349 247.339 21.1947L248.322 24.0293ZM222.332 34.174C218.045 36.0414 213.808 37.9866 209.621 40.0076L208.317 37.306C212.538 35.2681 216.811 33.3066 221.134 31.4236L222.332 34.174ZM197.208 46.3001C193.075 48.4974 188.995 50.7703 184.969 53.1167L183.458 50.5249C187.518 48.1588 191.632 45.8668 195.8 43.6511L197.208 46.3001ZM173.059 60.3745C169.122 62.8797 165.242 65.4572 161.421 68.1048L159.712 65.6388C163.566 62.9689 167.478 60.3698 171.448 57.8436L173.059 60.3745ZM150.094 76.2832C146.372 79.0822 142.711 81.9498 139.11 84.884L137.215 82.5584C140.845 79.5997 144.538 76.708 148.29 73.8856L150.094 76.2832ZM128.446 93.9248C124.953 97.0041 121.524 100.148 118.158 103.355L116.089 101.184C119.482 97.9499 122.94 94.7795 126.461 91.6746L128.446 93.9248ZM108.231 113.189C104.986 116.53 101.806 119.932 98.6938 123.393L96.4631 121.387C99.601 117.898 102.807 114.467 106.079 111.099L108.231 113.189ZM89.5569 133.954C86.5782 137.534 83.6681 141.17 80.828 144.86L78.4505 143.031C81.3138 139.31 84.2477 135.644 87.2509 132.035L89.5569 133.954ZM72.52 156.093C69.8247 159.885 67.2006 163.73 64.649 167.625L62.1395 165.981C64.7119 162.055 67.3574 158.178 70.0746 154.355L72.52 156.093ZM57.2128 179.458C54.8129 183.442 52.4864 187.474 50.2348 191.551L47.6086 190.101C49.8784 185.991 52.2237 181.926 54.6431 177.91L57.2128 179.458ZM43.7116 203.905C41.616 208.061 39.5962 212.259 37.6535 216.499L34.9262 215.249C36.8845 210.976 38.9205 206.743 41.0329 202.554L43.7116 203.905ZM32.0763 229.294C30.2946 233.598 28.5908 237.941 26.9661 242.32L24.1534 241.277C25.7911 236.863 27.5085 232.485 29.3044 228.146L32.0763 229.294ZM22.3584 255.482C20.9023 259.901 19.5256 264.354 18.2295 268.839L15.3474 268.006C16.6538 263.485 18.0414 258.997 19.509 254.543L22.3584 255.482ZM14.5992 282.327C13.4748 286.833 12.431 291.368 11.4688 295.93L8.53335 295.311C9.50311 290.713 10.5552 286.142 11.6884 281.6L14.5992 282.327ZM8.82992 309.688C8.04096 314.251 7.33316 318.84 6.70763 323.451L3.73485 323.048C4.36527 318.401 5.07862 313.776 5.87377 309.177L8.82992 309.688ZM5.07918 337.351C4.62312 341.968 4.24921 346.606 3.95874 351.263L0.964572 351.076C1.2573 346.383 1.63409 341.709 2.09369 337.056L5.07918 337.351ZM3.34056 365.208C3.21795 369.867 3.17865 374.542 3.22391 379.231L0.224049 379.26C0.178474 374.535 0.218015 369.824 0.341613 365.129L3.34056 365.208ZM3.60499 393.135C3.8148 397.782 4.10781 402.441 4.48507 407.111L1.4948 407.353C1.11469 402.647 0.819455 397.953 0.608015 393.27L3.60499 393.135ZM5.85367 421.003C6.38845 425.603 7.00542 430.211 7.70558 434.826L4.73952 435.276C4.03415 430.627 3.41256 425.984 2.87374 421.35L5.85367 421.003ZM10.0567 448.689C10.9058 453.217 11.8355 457.75 12.8469 462.285L9.91884 462.938C8.90002 458.369 7.96342 453.803 7.10809 449.242L10.0567 448.689ZM16.1241 475.888C17.2892 480.388 18.5355 484.89 19.8639 489.392L16.9865 490.241C15.6486 485.707 14.3934 481.173 13.2198 476.64L16.1241 475.888ZM24.0171 502.656C25.4814 507.076 27.0258 511.495 28.6513 515.911L25.836 516.948C24.1992 512.501 22.6439 508.051 21.1693 503.599L24.0171 502.656ZM33.6784 528.919C35.4118 533.199 37.2226 537.476 39.1113 541.746L36.3676 542.96C34.4661 538.66 32.6431 534.355 30.8978 530.045L33.6784 528.919ZM45.0127 554.541C47.0048 558.688 49.0718 562.829 51.2144 566.962L48.551 568.343C46.3944 564.183 44.3139 560.015 42.3085 555.84L45.0127 554.541ZM57.8225 579.253C60.1002 583.341 62.4533 587.421 64.8824 591.491L62.3064 593.028C59.862 588.933 57.4941 584.827 55.2017 580.713L57.8225 579.253ZM72.1441 603.27C74.6272 607.171 77.1815 611.063 79.8078 614.943L77.3234 616.625C74.6813 612.721 72.1115 608.806 69.6132 604.88L72.1441 603.27ZM87.9032 626.548C90.5748 630.266 93.3138 633.972 96.1211 637.666L93.7326 639.481C90.9092 635.766 88.1542 632.039 85.467 628.299L87.9032 626.548ZM104.711 648.662C107.642 652.315 110.641 655.954 113.709 659.578L111.419 661.516C108.335 657.872 105.319 654.213 102.371 650.54L104.711 648.662ZM122.801 670.049C125.865 673.49 128.992 676.916 132.183 680.328L129.992 682.377C126.784 678.948 123.641 675.503 120.561 672.044L122.801 670.049Z" fill="#034D82" fill-opacity="0.19"/>
</svg>
