<svg width="174" height="46" viewBox="0 0 174 46" fill="none" xmlns="http://www.w3.org/2000/svg">
<g clip-path="url(#clip0_53_7559)">
<path d="M37.2078 32.5792H31.2173V30.1055C30.9874 30.3249 30.8586 30.455 30.722 30.5837C29.4083 31.8225 27.8134 32.4978 26.0531 32.7986C23.9945 33.152 22.0055 32.9812 20.1164 32.0104C17.4758 30.6468 15.99 27.8735 16.2475 24.9045C16.4078 23.0548 17.0016 21.439 18.3994 20.1752C19.566 19.1242 20.9664 18.5488 22.5021 18.336C24.9561 17.9865 27.3169 18.2992 29.4963 19.5393C30.0914 19.8769 30.6169 20.3486 31.2173 20.7939C31.2173 20.4799 31.2265 20.1594 31.2173 19.8388C31.1936 19.0112 31.2685 18.1586 31.103 17.3599C30.7601 15.7177 29.537 14.898 28 14.5682C25.1203 13.9495 22.5796 14.7587 20.3082 16.5546C20.1427 16.6859 19.9837 16.8252 19.8208 16.9605C19.7914 16.9774 19.7606 16.9919 19.7289 17.0039L17.3734 12.8092C17.9291 12.3967 18.4611 11.9566 19.0378 11.5835C21.7099 9.85594 24.6684 9.23192 27.8187 9.316C29.721 9.36724 31.5667 9.6418 33.2732 10.5417C35.5814 11.7608 36.7782 13.7327 37.104 16.2708C37.1794 16.9297 37.2127 17.5927 37.2039 18.2558C37.2118 22.7838 37.2118 27.3121 37.2039 31.8409L37.2078 32.5792ZM31.2173 24.8454C31.3027 24.3002 31.0412 23.9442 30.659 23.6026C29.1127 22.218 26.1122 21.7634 24.185 22.6568C22.9238 23.2401 22.1855 24.2083 22.2013 25.6231C22.2183 27.0682 23.0013 28.0522 24.3229 28.5238C26.5089 29.312 28.5859 29.0072 30.4974 27.683C30.9926 27.3401 31.3342 26.9132 31.212 26.2458L31.2173 24.8454Z" fill="black"/>
<path d="M17.2228 2.91868L14.9711 6.52745C13.6639 5.62624 12.2872 5.25315 10.8986 6.13333C9.5612 6.97411 9.67813 8.48488 9.66499 9.88924H14.2301V15.0285H9.68207V32.585H3.70467V15.0285H0V9.88399H3.65344C3.69942 9.09576 3.70336 8.2944 3.78481 7.5666C4.08565 5.01668 5.14844 2.92131 7.48948 1.65489C9.0147 0.828564 10.6726 0.67092 12.3673 0.827252C13.7795 0.958624 15.1261 1.31201 16.3084 2.15015C16.629 2.37217 16.9075 2.64806 17.2228 2.91868Z" fill="black"/>
<path d="M44.2467 15.0298V22.2158C44.2467 24.0419 44.2322 25.8693 44.294 27.694C44.3754 30.1362 45.7982 31.9964 48.042 32.6296C48.7398 32.817 49.4562 32.9263 50.1781 32.9554C51.7125 33.0329 53.0683 32.8766 54.625 32.1672C54.625 32.1672 55.5013 31.7731 55.6313 31.6417L54.3373 27.0621C53.8933 27.2434 53.4913 27.4641 53.0604 27.5705C51.6074 27.9331 50.5643 27.296 50.2792 25.9021C50.212 25.5461 50.1795 25.1845 50.182 24.8223C50.182 21.894 50.182 18.9644 50.182 16.0361V15.0298H54.7564V9.88533H50.1847V2.83594H44.2467V9.88533H40.5039V15.0298H44.2467Z" fill="black"/>
<path d="M58.9082 9.88468H64.7293V12.7131C64.8987 12.5817 64.9749 12.52 65.0432 12.4504C67.1452 10.3484 69.6531 9.22257 72.6352 9.33949C75.0078 9.43276 76.9704 10.3143 78.0818 12.587C78.1909 12.8116 78.2828 13.0442 78.4024 13.3187C78.5141 13.1965 78.5968 13.1151 78.6651 13.0258C80.7539 10.4785 83.4471 9.216 86.7392 9.33817C88.4707 9.40123 90.076 9.88205 91.2715 11.2549C92.2104 12.3259 92.7338 13.6982 92.7468 15.1225C92.806 18.5933 92.7376 22.0667 92.7468 25.5376V32.5791C90.9957 32.5541 88.694 32.5791 86.8811 32.5791V18.299C86.8753 17.8761 86.8291 17.4546 86.7432 17.0405C86.349 15.0463 84.7857 14.3723 82.982 14.5615C81.3569 14.7323 80.0642 15.5652 79.0409 16.8145C78.8711 17.0364 78.776 17.3064 78.7689 17.5857V32.5791H72.8362V18.2057C72.8316 17.6178 72.7377 17.034 72.5577 16.4743C72.0322 14.8715 70.4426 14.3592 68.8793 14.572C67.2398 14.794 65.9655 15.6703 64.9381 16.9275C64.7962 17.1339 64.7226 17.3798 64.728 17.6303V32.5751H58.9082V9.88468Z" fill="#FF003D"/>
<path d="M173.733 9.88533C173.132 10.5777 172.594 11.1793 172.054 11.7994C169.753 14.4387 167.062 17.4615 164.745 20.0889L174 32.5797H167.131L160.985 24.1417L157.893 27.6888V32.5797H152.082V2.83594H157.893V19.7592L166.987 9.88926L173.733 9.88533Z" fill="#FF003D"/>
<path d="M125.617 9.88393H131.503V12.7307C131.708 12.5442 131.83 12.4365 131.948 12.3209C133.7 10.6196 135.798 9.66979 138.218 9.39391C139.553 9.22627 140.908 9.3245 142.205 9.68292C144.791 10.4186 146.208 12.1908 146.629 14.7972C146.714 15.439 146.749 16.0864 146.733 16.7336C146.743 21.7257 146.733 27.5796 146.733 32.5783H140.873C140.873 28.3206 140.873 23.251 140.873 18.9906C140.869 18.448 140.814 17.907 140.709 17.3747C140.406 15.8075 139.377 14.855 137.811 14.6159C135.406 14.2546 133.419 15.0468 131.802 16.8151C131.622 17.0271 131.519 17.2937 131.509 17.5718V32.5731H125.624L125.617 9.88393Z" fill="#FF003D"/>
<path d="M109.11 32.9456C105.196 32.8838 101.884 31.5517 99.5194 28.3121C97.826 25.9921 97.1547 23.3463 97.3163 20.5034C97.5791 16.0368 99.5496 12.6014 103.622 10.5573C105.732 9.49711 108.009 9.21729 110.355 9.40646C112.588 9.58644 114.64 10.238 116.454 11.5583C118.905 13.341 120.346 15.7754 120.878 18.7299C121.46 21.9656 120.987 25.0449 119.184 27.8392C117.361 30.665 114.707 32.2388 111.414 32.7748C110.953 32.8484 110.494 32.9062 110.023 32.9403C109.715 32.9653 109.408 32.9456 109.11 32.9456ZM114.983 20.9803C115.003 20.0873 114.845 19.1994 114.517 18.3686C113.681 16.1537 112.111 14.8098 109.73 14.5943C107.533 14.3946 105.67 15.15 104.514 17.0772C102.928 19.7204 102.909 22.4963 104.466 25.1434C106.468 28.5486 111.476 28.6616 113.744 25.4259C114.639 24.149 114.992 22.7039 114.983 20.9803Z" fill="#FF003D"/>
<path d="M119.613 35.9121H98.7812V41.1696H119.613V35.9121Z" fill="#FF003D"/>
<path d="M131.581 37.3121C131.547 37.3692 131.502 37.4191 131.449 37.4592C131.399 37.494 131.339 37.5115 131.279 37.5091C131.181 37.5013 131.089 37.4621 131.016 37.3975C130.896 37.3086 130.771 37.2261 130.641 37.1505C130.468 37.0512 130.286 36.9689 130.096 36.9048C129.847 36.8245 129.587 36.7868 129.325 36.7932C129.069 36.7888 128.813 36.8274 128.57 36.9075C128.368 36.9747 128.181 37.081 128.021 37.2201C127.877 37.3474 127.764 37.5055 127.69 37.6825C127.614 37.8648 127.576 38.0606 127.578 38.2579C127.568 38.4922 127.636 38.7232 127.771 38.9148C127.91 39.0961 128.084 39.2472 128.283 39.3588C128.513 39.4887 128.755 39.5952 129.006 39.6768L129.834 39.9566C130.116 40.0525 130.392 40.1615 130.661 40.2811C130.923 40.397 131.167 40.5511 131.384 40.7382C131.599 40.926 131.774 41.1564 131.896 41.4148C132.035 41.7242 132.101 42.0612 132.09 42.4001C132.093 42.7961 132.022 43.1891 131.88 43.5588C131.744 43.9132 131.535 44.2347 131.265 44.502C130.982 44.7782 130.644 44.9929 130.274 45.1326C129.847 45.2924 129.393 45.3704 128.938 45.3625C128.365 45.37 127.798 45.2568 127.272 45.0301C126.788 44.8213 126.351 44.5166 125.988 44.1342L126.356 43.5299C126.392 43.4814 126.437 43.44 126.487 43.4077C126.538 43.3753 126.596 43.3584 126.656 43.3591C126.774 43.3709 126.886 43.4228 126.971 43.5062C127.113 43.6225 127.26 43.7313 127.414 43.832C127.616 43.9626 127.832 44.0714 128.057 44.1565C128.352 44.2622 128.664 44.3125 128.977 44.305C129.252 44.307 129.525 44.2626 129.785 44.1736C130.007 44.0987 130.211 43.9789 130.385 43.8215C130.549 43.6708 130.678 43.4861 130.764 43.2803C130.853 43.0569 130.898 42.8181 130.895 42.5774C130.905 42.3294 130.837 42.0844 130.701 41.8772C130.566 41.6904 130.393 41.5349 130.192 41.4214C129.964 41.2912 129.723 41.1863 129.472 41.1087L128.645 40.846C128.363 40.7571 128.087 40.6531 127.817 40.5346C127.555 40.4204 127.312 40.2652 127.098 40.0748C126.881 39.877 126.708 39.6363 126.589 39.368C126.331 38.722 126.331 38.0015 126.589 37.3554C126.718 37.0443 126.909 36.7627 127.151 36.5278C127.412 36.2764 127.721 36.0798 128.06 35.9498C128.458 35.7987 128.88 35.7252 129.305 35.733C129.798 35.7259 130.288 35.8105 130.75 35.9826C131.175 36.1434 131.561 36.3893 131.887 36.7051L131.581 37.3121Z" fill="black" stroke="black" stroke-width="0.131371" stroke-miterlimit="10"/>
<path d="M140.133 35.8418V36.9125H137.092V45.2545H135.812V36.9125H132.758V35.8418H140.133Z" fill="black" stroke="black" stroke-width="0.131371" stroke-miterlimit="10"/>
<path d="M145.132 44.243C145.492 44.25 145.849 44.183 146.183 44.0459C146.479 43.9215 146.745 43.7331 146.96 43.4942C147.179 43.2479 147.344 42.9595 147.446 42.6468C147.562 42.2972 147.618 41.9311 147.615 41.563V35.8418H148.882V41.567C148.886 42.0822 148.797 42.594 148.62 43.0777C148.457 43.5257 148.204 43.9357 147.877 44.2824C147.544 44.6295 147.141 44.9018 146.695 45.0811C145.688 45.4665 144.575 45.4665 143.568 45.0811C143.122 44.9013 142.719 44.6291 142.386 44.2824C142.057 43.9362 141.803 43.5262 141.64 43.0777C141.463 42.5939 141.374 42.0822 141.377 41.567V35.8457H142.643V41.5604C142.639 41.9284 142.696 42.2945 142.81 42.6442C142.913 42.9567 143.079 43.245 143.296 43.4915C143.515 43.7321 143.784 43.9214 144.085 44.0459C144.416 44.1829 144.773 44.25 145.132 44.243Z" fill="black" stroke="black" stroke-width="0.131371" stroke-miterlimit="10"/>
<path d="M159.223 40.5499C159.231 41.2066 159.118 41.8592 158.888 42.4745C158.679 43.0297 158.357 43.5353 157.942 43.959C157.526 44.3762 157.027 44.7016 156.477 44.914C155.874 45.1461 155.232 45.2611 154.585 45.253H151.064V35.8402H154.585C155.231 35.8324 155.873 35.947 156.477 36.1778C157.027 36.3912 157.526 36.7179 157.942 37.1368C158.356 37.5624 158.678 38.0692 158.888 38.6253C159.118 39.2405 159.231 39.8931 159.223 40.5499ZM157.909 40.5499C157.917 40.0236 157.837 39.4997 157.672 38.9997C157.531 38.5722 157.303 38.1786 157.002 37.8436C156.711 37.5269 156.352 37.28 155.951 37.1211C155.514 36.9499 155.048 36.8651 154.579 36.8715H152.339V44.2283H154.579C155.048 44.2347 155.514 44.1499 155.951 43.9787C156.351 43.8203 156.71 43.5743 157.002 43.2587C157.304 42.9256 157.532 42.5332 157.672 42.1066C157.84 41.6049 157.922 41.0787 157.915 40.5499H157.909Z" fill="black" stroke="black" stroke-width="0.131371" stroke-miterlimit="10"/>
<path d="M162.468 45.2545H161.193V35.8418H162.468V45.2545Z" fill="black" stroke="black" stroke-width="0.131371" stroke-miterlimit="10"/>
<path d="M173.733 40.5511C173.74 41.2129 173.627 41.8705 173.398 42.4915C173.189 43.0576 172.867 43.5753 172.452 44.0128C172.037 44.442 171.537 44.7787 170.983 45.0007C169.765 45.4701 168.415 45.4701 167.197 45.0007C166.644 44.7783 166.145 44.4416 165.732 44.0128C165.317 43.5753 164.995 43.0576 164.786 42.4915C164.34 41.236 164.34 39.8649 164.786 38.6095C164.996 38.043 165.317 37.5247 165.732 37.0856C166.145 36.6547 166.644 36.3158 167.197 36.0911C168.415 35.6181 169.765 35.6181 170.983 36.0911C171.537 36.3154 172.038 36.6543 172.452 37.0856C172.866 37.5247 173.188 38.043 173.398 38.6095C173.626 39.2309 173.74 39.8889 173.733 40.5511ZM172.419 40.5511C172.427 40.0227 172.347 39.4967 172.182 38.9944C172.041 38.5636 171.813 38.1665 171.512 37.8278C171.22 37.5091 170.862 37.2592 170.461 37.0961C169.574 36.7528 168.59 36.7528 167.703 37.0961C167.303 37.26 166.944 37.5098 166.652 37.8278C166.349 38.1657 166.12 38.563 165.979 38.9944C165.664 40.0069 165.664 41.0914 165.979 42.1039C166.12 42.5341 166.349 42.9301 166.652 43.2666C166.943 43.585 167.302 43.8342 167.703 43.9957C168.591 44.3354 169.573 44.3354 170.461 43.9957C170.862 43.8349 171.221 43.5857 171.512 43.2666C171.813 42.9293 172.041 42.5335 172.182 42.1039C172.349 41.6034 172.431 41.0786 172.425 40.5511H172.419Z" fill="black" stroke="black" stroke-width="0.131371" stroke-miterlimit="10"/>
</g>
<defs>
<clipPath id="clip0_53_7559">
<rect width="174" height="44.6597" fill="white" transform="translate(0 0.771484)"/>
</clipPath>
</defs>
</svg>
