<svg width="99" height="98" viewBox="0 0 99 98" fill="none" xmlns="http://www.w3.org/2000/svg">
<path d="M17.9312 7.87002e-06H80.9911C83.2623 -0.00218768 85.5117 0.455016 87.6104 1.34545C89.7092 2.23589 91.6161 3.54208 93.2221 5.18926C94.8281 6.83645 96.1017 8.7923 96.9698 10.9449C97.838 13.0974 98.2838 15.4045 98.2817 17.734V79.9071C98.2838 82.2365 97.838 84.5436 96.9698 86.6962C96.1017 88.8487 94.8281 90.8046 93.2221 92.4518C91.6161 94.0989 89.7092 95.4051 87.6104 96.2956C85.5117 97.186 83.2623 97.6432 80.9911 97.641H17.9312C15.66 97.6432 13.4106 97.186 11.3119 96.2956C9.21311 95.4051 7.30616 94.0989 5.70016 92.4518C4.09415 90.8046 2.82062 88.8487 1.95244 86.6962C1.08427 84.5436 0.638492 82.2365 0.640633 79.9071V17.734C0.638492 15.4045 1.08427 13.0974 1.95244 10.9449C2.82062 8.7923 4.09415 6.83645 5.70016 5.18926C7.30616 3.54208 9.21311 2.23589 11.3119 1.34545C13.4106 0.455016 15.66 -0.00218768 17.9312 7.87002e-06Z" fill="#F0F0F0"/>
<path d="M84.6958 45.5588L52.7206 13.5862C50.8808 11.7447 47.8945 11.7447 46.0524 13.5862L39.4131 20.2264L47.8348 28.6485C49.7927 27.9874 52.0367 28.4306 53.5966 29.9909C55.1646 31.5609 55.6047 33.8242 54.9271 35.7887L63.0441 43.9061C65.0079 43.2294 67.2736 43.6666 68.8417 45.2375C71.034 47.4292 71.034 50.9807 68.8417 53.1729C66.6491 55.3659 63.0978 55.3659 60.904 53.1729C59.2556 51.5232 58.8478 49.1011 59.6828 47.07L52.1127 39.4997L52.1121 59.4209C52.6465 59.6855 53.1509 60.0386 53.5963 60.4821C55.7879 62.6736 55.7879 66.2244 53.5963 68.4195C51.404 70.6109 47.8511 70.6109 45.6612 68.4195C43.4692 66.2246 43.4692 62.6738 45.6612 60.4821C46.2029 59.9414 46.8297 59.5321 47.4985 59.2577V39.1513C46.8294 38.8781 46.2033 38.4719 45.6608 37.9268C44.0005 36.2677 43.6006 33.8308 44.4521 31.7919L36.1499 23.4881L14.2272 45.411C12.3852 47.254 12.3852 50.2405 14.2272 52.0821L46.2005 84.0547C48.0413 85.8962 51.0266 85.8962 52.87 84.0547L84.6954 52.2332C86.5368 50.3907 86.5368 47.4034 84.6954 45.5615" fill="#F05133"/>
</svg>
