<svg width="98" height="98" viewBox="0 0 98 98" fill="none" xmlns="http://www.w3.org/2000/svg">
<g clip-path="url(#clip0_1_8909)">
<path d="M17.3668 7.87002e-06H80.4266C82.6978 -0.00218768 84.9472 0.455016 87.046 1.34545C89.1447 2.23589 91.0517 3.54208 92.6577 5.18926C94.2637 6.83645 95.5372 8.7923 96.4054 10.9449C97.2736 13.0974 97.7193 15.4045 97.7172 17.734V79.9071C97.7193 82.2365 97.2736 84.5436 96.4054 86.6962C95.5372 88.8487 94.2637 90.8046 92.6577 92.4518C91.0517 94.0989 89.1447 95.4051 87.046 96.2956C84.9472 97.186 82.6978 97.6432 80.4266 97.641H17.3668C15.0955 97.6432 12.8462 97.186 10.7474 96.2956C8.64866 95.4051 6.74171 94.0989 5.1357 92.4518C3.5297 90.8046 2.25616 88.8487 1.38799 86.6962C0.519812 84.5436 0.0740389 82.2365 0.0761795 79.9071V17.734C0.0740389 15.4045 0.519812 13.0974 1.38799 10.9449C2.25616 8.7923 3.5297 6.83645 5.1357 5.18926C6.74171 3.54208 8.64866 2.23589 10.7474 1.34545C12.8462 0.455016 15.0955 -0.00218768 17.3668 7.87002e-06Z" fill="#F7DF1E"/>
<path d="M65.8321 76.3993C67.7989 79.6106 70.3577 81.9711 74.8833 81.9711C78.6851 81.9711 81.1137 80.071 81.1137 77.4455C81.1137 74.2993 78.6184 73.1849 74.4338 71.3546L72.14 70.3704C65.519 67.5497 61.1205 64.016 61.1205 56.5457C61.1205 49.6643 66.3637 44.4258 74.5578 44.4258C80.3915 44.4258 84.5854 46.4561 87.6076 51.7721L80.4628 56.3597C78.8897 53.5389 77.1926 52.4277 74.5578 52.4277C71.8703 52.4277 70.1671 54.1325 70.1671 56.3597C70.1671 59.1122 71.8719 60.2266 75.8085 61.9314L78.1023 62.914C85.8981 66.2571 90.2997 69.6652 90.2997 77.3277C90.2997 85.5884 83.8105 90.114 75.0956 90.114C66.5745 90.114 61.0694 86.0534 58.3757 80.7312L65.8321 76.3993ZM33.4199 77.1944C34.8613 79.7517 36.1725 81.9137 39.3249 81.9137C42.3394 81.9137 44.241 80.7343 44.241 76.1483V44.9496H53.4162V76.2723C53.4162 85.7729 47.846 90.097 39.7155 90.097C32.3691 90.097 28.1148 86.2952 25.9512 81.7161L33.4199 77.1944Z" fill="black"/>
</g>
<defs>
<clipPath id="clip0_1_8909">
<rect width="97.641" height="97.641" fill="white" transform="translate(0.0761719)"/>
</clipPath>
</defs>
</svg>
