<svg width="174" height="46" viewBox="0 0 174 46" fill="none" xmlns="http://www.w3.org/2000/svg">
<g clip-path="url(#clip0_571_7718)">
<path d="M37.2078 32.5787H31.2173V30.105C30.9874 30.3244 30.8586 30.4545 30.722 30.5832C29.4083 31.8221 27.8134 32.4973 26.0531 32.7981C23.9945 33.1515 22.0055 32.9807 20.1164 32.0099C17.4758 30.6463 15.99 27.873 16.2475 24.904C16.4078 23.0543 17.0016 21.4385 18.3994 20.1747C19.566 19.1237 20.9664 18.5483 22.5021 18.3355C24.9561 17.986 27.3169 18.2987 29.4963 19.5388C30.0914 19.8764 30.6169 20.3481 31.2173 20.7934C31.2173 20.4794 31.2265 20.1589 31.2173 19.8384C31.1936 19.0107 31.2685 18.1581 31.103 17.3594C30.7601 15.7172 29.537 14.8975 28 14.5677C25.1203 13.949 22.5796 14.7582 20.3082 16.5541C20.1427 16.6854 19.9837 16.8247 19.8208 16.96C19.7914 16.9769 19.7606 16.9915 19.7289 17.0034L17.3734 12.8087C17.9291 12.3962 18.4611 11.9561 19.0378 11.583C21.7099 9.85545 24.6684 9.23143 27.8187 9.31551C29.721 9.36675 31.5667 9.64132 33.2732 10.5412C35.5814 11.7603 36.7782 13.7322 37.104 16.2703C37.1794 16.9292 37.2127 17.5922 37.2039 18.2553C37.2118 22.7833 37.2118 27.3116 37.2039 31.8404L37.2078 32.5787ZM31.2173 24.8449C31.3027 24.2997 31.0412 23.9437 30.659 23.6021C29.1127 22.2175 26.1122 21.763 24.185 22.6563C22.9238 23.2396 22.1855 24.2078 22.2013 25.6226C22.2183 27.0677 23.0013 28.0517 24.3229 28.5233C26.5089 29.3115 28.5859 29.0068 30.4974 27.6825C30.9926 27.3397 31.3342 26.9127 31.212 26.2453L31.2173 24.8449Z" fill="white"/>
<path d="M17.2228 2.91917L14.9711 6.52794C13.6639 5.62673 12.2872 5.25363 10.8986 6.13382C9.5612 6.9746 9.67813 8.48537 9.66499 9.88973H14.2301V15.029H9.68207V32.5854H3.70467V15.029H0V9.88448H3.65344C3.69942 9.09625 3.70336 8.29488 3.78481 7.56709C4.08565 5.01717 5.14844 2.9218 7.48948 1.65538C9.0147 0.829053 10.6726 0.671409 12.3673 0.827741C13.7795 0.959112 15.1261 1.31249 16.3084 2.15064C16.629 2.37266 16.9075 2.64854 17.2228 2.91917Z" fill="white"/>
<path d="M44.2477 15.0288V22.2149C44.2477 24.0409 44.2332 25.8683 44.2949 27.693C44.3764 30.1352 45.7991 31.9955 48.043 32.6287C48.7407 32.816 49.4572 32.9253 50.1791 32.9545C51.7135 33.032 53.0692 32.8756 54.626 32.1662C54.626 32.1662 55.5022 31.7721 55.6323 31.6407L54.3383 27.0611C53.8942 27.2424 53.4923 27.4631 53.0614 27.5696C51.6084 27.9321 50.5653 27.295 50.2802 25.9011C50.213 25.5452 50.1804 25.1835 50.183 24.8213C50.183 21.893 50.183 18.9634 50.183 16.0351V15.0288H54.7574V9.88435H50.1856V2.83496H44.2477V9.88435H40.5049V15.0288H44.2477Z" fill="white"/>
<path d="M58.9082 9.88444H64.7293V12.7129C64.8987 12.5815 64.9749 12.5197 65.0432 12.4501C67.1452 10.3482 69.6531 9.22232 72.6352 9.33924C75.0078 9.43252 76.9704 10.314 78.0818 12.5867C78.1909 12.8114 78.2828 13.0439 78.4024 13.3185C78.5141 13.1963 78.5968 13.1149 78.6651 13.0255C80.7539 10.4782 83.4471 9.21575 86.7392 9.33793C88.4707 9.40099 90.076 9.88181 91.2715 11.2546C92.2104 12.3257 92.7338 13.698 92.7468 15.1222C92.806 18.593 92.7376 22.0665 92.7468 25.5373V32.5788C90.9957 32.5539 88.694 32.5788 86.8811 32.5788V18.2988C86.8753 17.8758 86.8291 17.4544 86.7432 17.0402C86.349 15.046 84.7857 14.3721 82.982 14.5613C81.3569 14.732 80.0642 15.5649 79.0409 16.8143C78.8711 17.0362 78.776 17.3061 78.7689 17.5854V32.5788H72.8362V18.2055C72.8316 17.6176 72.7377 17.0337 72.5577 16.474C72.0322 14.8713 70.4426 14.3589 68.8793 14.5718C67.2398 14.7938 65.9655 15.67 64.9381 16.9272C64.7962 17.1337 64.7226 17.3796 64.728 17.6301V32.5749H58.9082V9.88444Z" fill="#FF003D"/>
<path d="M173.733 9.88435C173.132 10.5767 172.594 11.1784 172.054 11.7984C169.753 14.4377 167.062 17.4605 164.745 20.088L174 32.5787H167.131L160.985 24.1408L157.893 27.6878V32.5787H152.082V2.83496H157.893V19.7582L166.987 9.88829L173.733 9.88435Z" fill="#FF003D"/>
<path d="M125.617 9.88442H131.503V12.7312C131.708 12.5447 131.83 12.437 131.948 12.3214C133.7 10.6201 135.798 9.67027 138.218 9.39439C139.553 9.22676 140.908 9.32499 142.205 9.68341C144.791 10.4191 146.208 12.1913 146.629 14.7977C146.714 15.4395 146.749 16.0869 146.733 16.7341C146.743 21.7262 146.733 27.5801 146.733 32.5788H140.873C140.873 28.3211 140.873 23.2514 140.873 18.9911C140.869 18.4485 140.814 17.9075 140.709 17.3752C140.406 15.8079 139.377 14.8555 137.811 14.6164C135.406 14.2551 133.419 15.0473 131.802 16.8156C131.622 17.0276 131.519 17.2942 131.509 17.5723V32.5736H125.624L125.617 9.88442Z" fill="#FF003D"/>
<path d="M109.11 32.9453C105.196 32.8836 101.884 31.5515 99.5194 28.3119C97.826 25.9918 97.1547 23.346 97.3163 20.5032C97.5791 16.0365 99.5496 12.6012 103.622 10.557C105.732 9.49687 108.009 9.21705 110.355 9.40622C112.588 9.5862 114.64 10.2378 116.454 11.5581C118.905 13.3408 120.346 15.7751 120.878 18.7296C121.46 21.9653 120.987 25.0447 119.184 27.8389C117.361 30.6647 114.707 32.2385 111.414 32.7745C110.953 32.8481 110.494 32.9059 110.023 32.9401C109.715 32.965 109.408 32.9453 109.11 32.9453ZM114.983 20.98C115.003 20.0871 114.845 19.1991 114.517 18.3684C113.681 16.1535 112.111 14.8095 109.73 14.5941C107.533 14.3944 105.67 15.1498 104.514 17.077C102.928 19.7202 102.909 22.4961 104.466 25.1432C106.468 28.5483 111.476 28.6613 113.744 25.4256C114.639 24.1487 114.992 22.7036 114.983 20.98Z" fill="#FF003D"/>
<path d="M119.612 35.9119H98.7803V41.1693H119.612V35.9119Z" fill="#FF003D"/>
<path d="M131.582 37.3121C131.548 37.3692 131.503 37.4191 131.45 37.4592C131.4 37.494 131.34 37.5115 131.28 37.5091C131.182 37.5013 131.09 37.4621 131.017 37.3975C130.897 37.3086 130.772 37.2261 130.642 37.1505C130.469 37.0512 130.286 36.9689 130.097 36.9048C129.848 36.8245 129.588 36.7868 129.326 36.7932C129.07 36.7888 128.814 36.8274 128.571 36.9075C128.369 36.9747 128.182 37.081 128.022 37.2201C127.878 37.3474 127.765 37.5055 127.691 37.6825C127.615 37.8648 127.577 38.0606 127.579 38.2579C127.569 38.4922 127.637 38.7232 127.772 38.9148C127.911 39.0961 128.085 39.2472 128.284 39.3588C128.514 39.4887 128.756 39.5952 129.007 39.6768L129.834 39.9566C130.117 40.0525 130.393 40.1615 130.662 40.2811C130.924 40.397 131.168 40.5511 131.385 40.7382C131.6 40.926 131.775 41.1564 131.897 41.4148C132.036 41.7242 132.102 42.0612 132.091 42.4001C132.094 42.7961 132.023 43.1891 131.881 43.5588C131.745 43.9132 131.536 44.2347 131.266 44.502C130.983 44.7782 130.645 44.9929 130.275 45.1326C129.848 45.2924 129.394 45.3704 128.939 45.3625C128.366 45.37 127.798 45.2568 127.273 45.0301C126.789 44.8213 126.352 44.5166 125.989 44.1342L126.357 43.5299C126.393 43.4814 126.438 43.44 126.488 43.4077C126.539 43.3753 126.597 43.3584 126.657 43.3591C126.775 43.3709 126.887 43.4228 126.972 43.5062C127.114 43.6225 127.261 43.7313 127.415 43.832C127.617 43.9626 127.833 44.0714 128.058 44.1565C128.353 44.2622 128.665 44.3125 128.978 44.305C129.253 44.307 129.526 44.2626 129.786 44.1736C130.008 44.0987 130.212 43.9789 130.386 43.8215C130.55 43.6708 130.679 43.4861 130.765 43.2803C130.854 43.0569 130.899 42.8181 130.896 42.5774C130.906 42.3294 130.838 42.0844 130.702 41.8772C130.567 41.6904 130.393 41.5349 130.193 41.4214C129.965 41.2912 129.724 41.1863 129.473 41.1087L128.646 40.846C128.364 40.7571 128.088 40.6531 127.818 40.5346C127.556 40.4204 127.313 40.2652 127.099 40.0748C126.882 39.877 126.709 39.6363 126.59 39.368C126.332 38.722 126.332 38.0015 126.59 37.3554C126.719 37.0443 126.91 36.7627 127.152 36.5278C127.413 36.2764 127.722 36.0798 128.061 35.9498C128.458 35.7987 128.881 35.7252 129.306 35.733C129.799 35.7259 130.289 35.8105 130.751 35.9826C131.176 36.1434 131.562 36.3893 131.888 36.7051L131.582 37.3121Z" fill="white" stroke="white" stroke-width="0.131371" stroke-miterlimit="10"/>
<path d="M140.134 35.8408V36.9115H137.093V45.2536H135.813V36.9115H132.759V35.8408H140.134Z" fill="white" stroke="white" stroke-width="0.131371" stroke-miterlimit="10"/>
<path d="M145.133 44.242C145.493 44.2491 145.85 44.182 146.184 44.045C146.48 43.9205 146.746 43.7321 146.961 43.4932C147.18 43.2469 147.345 42.9586 147.447 42.6458C147.563 42.2963 147.619 41.9301 147.616 41.562V35.8408H148.883V41.566C148.887 42.0813 148.798 42.5931 148.621 43.0767C148.458 43.5247 148.205 43.9347 147.878 44.2814C147.545 44.6285 147.142 44.9008 146.696 45.0802C145.689 45.4656 144.576 45.4656 143.569 45.0802C143.123 44.9003 142.72 44.6281 142.387 44.2814C142.058 43.9353 141.804 43.5252 141.641 43.0767C141.464 42.5929 141.375 42.0812 141.378 41.566V35.8447H142.644V41.5594C142.64 41.9274 142.696 42.2936 142.811 42.6432C142.914 42.9557 143.08 43.244 143.297 43.4906C143.516 43.7311 143.785 43.9204 144.086 44.045C144.417 44.182 144.774 44.249 145.133 44.242Z" fill="white" stroke="white" stroke-width="0.131371" stroke-miterlimit="10"/>
<path d="M159.222 40.5504C159.23 41.2071 159.117 41.8597 158.887 42.475C158.678 43.0302 158.356 43.5358 157.941 43.9594C157.525 44.3767 157.026 44.7021 156.476 44.9145C155.873 45.1465 155.231 45.2616 154.584 45.2534H151.063V35.8407H154.584C155.23 35.8329 155.872 35.9475 156.476 36.1783C157.026 36.3916 157.525 36.7184 157.941 37.1373C158.355 37.5629 158.677 38.0697 158.887 38.6258C159.117 39.241 159.23 39.8936 159.222 40.5504ZM157.908 40.5504C157.916 40.0241 157.836 39.5001 157.671 39.0002C157.53 38.5727 157.302 38.1791 157.001 37.8441C156.71 37.5274 156.351 37.2804 155.95 37.1216C155.513 36.9503 155.047 36.8656 154.578 36.872H152.338V44.2288H154.578C155.047 44.2352 155.513 44.1504 155.95 43.9791C156.35 43.8208 156.709 43.5748 157.001 43.2592C157.303 42.9261 157.531 42.5336 157.671 42.1071C157.839 41.6054 157.921 41.0792 157.914 40.5504H157.908Z" fill="white" stroke="white" stroke-width="0.131371" stroke-miterlimit="10"/>
<path d="M162.467 45.2536H161.192V35.8408H162.467V45.2536Z" fill="white" stroke="white" stroke-width="0.131371" stroke-miterlimit="10"/>
<path d="M173.732 40.5506C173.739 41.2124 173.626 41.8701 173.397 42.491C173.188 43.0571 172.866 43.5748 172.451 44.0123C172.036 44.4415 171.536 44.7782 170.982 45.0002C169.764 45.4696 168.414 45.4696 167.196 45.0002C166.643 44.7778 166.144 44.4411 165.731 44.0123C165.316 43.5748 164.994 43.0571 164.785 42.491C164.339 41.2355 164.339 39.8644 164.785 38.609C164.995 38.0425 165.316 37.5242 165.731 37.0851C166.144 36.6542 166.643 36.3153 167.196 36.0906C168.414 35.6176 169.764 35.6176 170.982 36.0906C171.536 36.3149 172.037 36.6538 172.451 37.0851C172.865 37.5242 173.187 38.0425 173.397 38.609C173.626 39.2304 173.739 39.8884 173.732 40.5506ZM172.418 40.5506C172.426 40.0222 172.346 39.4962 172.181 38.9939C172.041 38.5632 171.812 38.166 171.511 37.8273C171.22 37.5087 170.861 37.2587 170.46 37.0956C169.573 36.7523 168.589 36.7523 167.702 37.0956C167.302 37.2595 166.943 37.5093 166.651 37.8273C166.348 38.1652 166.119 38.5625 165.978 38.9939C165.663 40.0064 165.663 41.0909 165.978 42.1034C166.119 42.5336 166.348 42.9296 166.651 43.2661C166.942 43.5846 167.301 43.8337 167.702 43.9952C168.59 44.3349 169.572 44.3349 170.46 43.9952C170.861 43.8344 171.22 43.5852 171.511 43.2661C171.812 42.9288 172.04 42.533 172.181 42.1034C172.348 41.6029 172.43 41.0782 172.424 40.5506H172.418Z" fill="white" stroke="white" stroke-width="0.131371" stroke-miterlimit="10"/>
</g>
<defs>
<clipPath id="clip0_571_7718">
<rect width="174" height="44.6597" fill="white" transform="translate(0 0.77124)"/>
</clipPath>
</defs>
</svg>
