<svg width="161" height="41" viewBox="0 0 161 41" fill="none" xmlns="http://www.w3.org/2000/svg">
<g clip-path="url(#clip0_647_462)">
<path d="M34.4285 29.2011H28.8855V26.9301C28.6716 27.1315 28.5536 27.2509 28.426 27.3691C27.2104 28.5064 25.736 29.1263 24.1071 29.4025C22.2023 29.727 20.3608 29.5702 18.614 28.6789C16.1707 27.427 14.7947 24.881 15.0329 22.1553C15.1812 20.4572 15.7307 18.9737 17.024 17.8135C18.1047 16.8487 19.3992 16.3204 20.8215 16.125C23.0921 15.8042 25.2765 16.0913 27.2919 17.2298C27.8425 17.5397 28.33 17.9727 28.8855 18.3816C28.8855 18.0933 28.894 17.799 28.8855 17.5048C28.8636 16.7449 28.9329 15.9622 28.7785 15.2289C28.4625 13.7213 27.3308 12.9688 25.9074 12.666C23.2441 12.098 20.892 12.8397 18.7915 14.4896C18.6383 14.6102 18.4912 14.7381 18.3405 14.8623C18.313 14.8772 18.2845 14.8905 18.2554 14.9021C17.5431 13.6466 16.8283 12.3874 16.0759 11.0596C16.5901 10.6809 17.0824 10.2768 17.616 9.93432C20.0873 8.33991 22.8259 7.76703 25.7408 7.8394C27.501 7.88643 29.2088 8.1385 30.7878 8.96465C32.9224 10.0887 34.0358 11.899 34.3324 14.2315C34.4017 14.8364 34.4322 15.4451 34.4236 16.0539C34.4317 20.2116 34.4317 24.3688 34.4236 28.5257L34.4285 29.2011ZM28.8855 22.1011C28.9645 21.6005 28.7214 21.2737 28.3689 20.9601C26.9382 19.6889 24.1618 19.2716 22.3786 20.0918C21.2116 20.6272 20.5273 21.5161 20.5431 22.815C20.5589 24.1417 21.2834 25.045 22.5062 25.478C24.5277 26.1956 26.4507 25.9219 28.2194 24.7061C28.6788 24.3914 28.9949 23.9982 28.8818 23.3867L28.8855 22.1011Z" fill="white"/>
<path d="M15.936 1.97071L13.8574 5.28496C12.6479 4.4576 11.374 4.11508 10.0892 4.92314C8.85051 5.69502 8.95991 7.08199 8.94775 8.37127H13.1718V13.0882H8.95869V29.2011H3.42789V13.0833H0V8.36644H3.38413C3.42667 7.64281 3.43032 6.90711 3.50568 6.23895C3.78526 3.89799 4.76865 1.97433 6.93478 0.811685C8.34848 0.050661 9.88374 -0.0940662 11.4518 0.0494549C12.7573 0.170061 14.0045 0.494491 15.0985 1.26396C15.3866 1.47019 15.6443 1.72347 15.936 1.97071Z" fill="white"/>
<path d="M40.9414 13.0833V19.6805C40.9414 21.3569 40.928 23.0345 40.9852 24.7097C41.0605 26.9506 42.377 28.6596 44.4532 29.2409C45.1004 29.4134 45.7649 29.5137 46.4345 29.54C47.8543 29.6112 49.1088 29.4664 50.5492 28.8164C50.5492 28.8164 51.36 28.4546 51.4791 28.334L50.283 24.1296C49.8709 24.2961 49.499 24.4987 49.1015 24.5964C47.7571 24.928 46.7919 24.3443 46.5281 23.0647C46.4659 22.7379 46.4358 22.4059 46.4382 22.0733C46.4321 19.385 46.4382 16.6955 46.4382 14.0072V13.0797H50.6671V8.36643H46.4345V1.89471H40.9414V8.36643H37.4783V13.0833H40.9414Z" fill="white"/>
<path d="M54.5059 8.36644H59.8932V10.9631C60.05 10.8364 60.1193 10.7846 60.1825 10.7219C62.1274 8.79218 64.4492 7.75858 67.2085 7.86592C69.4038 7.95155 71.2259 8.76082 72.2482 10.8473C72.3491 11.0535 72.4342 11.267 72.5448 11.5191C72.6481 11.4069 72.7247 11.3321 72.7879 11.2501C74.7219 8.91157 77.2138 7.75255 80.2588 7.86472C81.8621 7.92261 83.3475 8.36402 84.4537 9.62436C85.3224 10.6076 85.8067 11.8675 85.8187 13.175C85.8734 16.3614 85.8102 19.549 85.8187 22.7366V29.2011C84.1984 29.1782 82.0675 29.2011 80.3913 29.2011V16.09C80.3878 15.7023 80.3471 15.3159 80.2697 14.9358C79.905 13.105 78.4585 12.4863 76.7895 12.66C75.2859 12.8168 74.0886 13.5814 73.1429 14.7284C72.9852 14.9318 72.8971 15.1798 72.8912 15.4364V29.2011H67.3932V16.0056C67.3891 15.4671 67.3027 14.9324 67.1368 14.4196C66.6566 12.9483 65.1797 12.4767 63.7332 12.6733C62.2162 12.8771 61.0371 13.6815 60.0865 14.8357C59.9544 15.0249 59.8863 15.2509 59.892 15.481V29.2011H54.5059V8.36644Z" fill="#E71B67"/>
<path d="M160.752 8.36643C160.196 9.00202 159.699 9.5544 159.2 10.1237C157.07 12.5466 154.581 15.3218 152.436 17.7339L161 29.2011H154.643L148.957 21.4546L146.095 24.711V29.2011H140.719V1.89471H146.095V17.4276L154.511 8.36643H160.752Z" fill="#E71B67"/>
<path d="M116.232 8.36643H121.678V10.9751C121.867 10.8039 121.98 10.705 122.09 10.5988C123.711 9.03097 125.651 8.16502 127.892 7.91174C129.127 7.75788 130.381 7.84805 131.581 8.17708C133.973 8.85247 135.283 10.4794 135.674 12.8723C135.753 13.4614 135.785 14.0558 135.77 14.65C135.779 19.2391 135.77 24.6072 135.77 29.1963H130.348C130.348 25.2874 130.348 20.6333 130.341 16.722C130.338 16.2239 130.287 15.7273 130.19 15.2386C129.909 13.7997 128.956 12.9253 127.509 12.7058C125.283 12.3742 123.445 13.1014 121.949 14.7248C121.782 14.9193 121.686 15.1642 121.678 15.4195V29.2011H116.232V8.36643Z" fill="#E71B67"/>
<path d="M100.956 29.5376C97.3362 29.4809 94.2705 28.258 92.0825 25.2838C90.5169 23.1539 89.8945 20.7249 90.044 18.115C90.2871 14.0144 92.1105 10.8606 95.8787 8.98394C97.8236 8.01065 99.9375 7.75376 102.108 7.92743C104.175 8.09266 106.074 8.69087 107.752 9.90296C110.008 11.5396 111.346 13.7744 111.838 16.4856C112.378 19.4574 111.94 22.2844 110.272 24.8497C108.585 27.4439 106.13 28.8887 103.081 29.3796C102.655 29.4484 102.23 29.5002 101.795 29.5328C101.517 29.5557 101.236 29.5376 100.956 29.5376ZM106.392 18.5528C106.409 17.7351 106.263 16.9222 105.961 16.1612C105.188 14.1278 103.735 12.894 101.531 12.6962C99.4987 12.5129 97.775 13.2064 96.7041 14.9756C95.2369 17.4022 95.2199 19.9506 96.6603 22.3809C98.5128 25.5058 103.147 25.6095 105.246 22.6402C106.074 21.4679 106.401 20.1412 106.392 18.5528Z" fill="#E71B67"/>
<path d="M110.676 32.2609H91.4006V37.0875H110.676V32.2609Z" fill="#E71B67"/>
<path d="M121.751 33.5465C121.719 33.599 121.678 33.6448 121.629 33.6816C121.583 33.7136 121.528 33.7296 121.471 33.7275C121.381 33.7202 121.296 33.6843 121.228 33.6249C121.117 33.5433 121.001 33.4676 120.882 33.3982C120.721 33.307 120.552 33.2315 120.377 33.1727C120.147 33.099 119.906 33.0644 119.664 33.0702C119.426 33.066 119.19 33.1015 118.965 33.1751C118.778 33.2369 118.605 33.3344 118.457 33.4621C118.323 33.5786 118.219 33.7238 118.15 33.8867C118.08 34.054 118.045 34.2337 118.047 34.4149C118.038 34.63 118.101 34.842 118.226 35.0179C118.354 35.1849 118.515 35.3237 118.7 35.4256C118.912 35.5448 119.136 35.6426 119.368 35.7175L120.134 35.9743C120.395 36.0624 120.651 36.1625 120.9 36.2722C121.142 36.379 121.367 36.5204 121.568 36.6919C121.768 36.8643 121.929 37.0758 122.043 37.3131C122.17 37.5973 122.232 37.9065 122.222 38.2176C122.225 38.5811 122.159 38.9418 122.028 39.2814C121.902 39.6067 121.708 39.9019 121.459 40.1473C121.196 40.4006 120.884 40.5977 120.541 40.7262C120.146 40.8729 119.727 40.9445 119.305 40.9373C118.775 40.9442 118.25 40.8402 117.764 40.6321C117.316 40.4408 116.912 40.1609 116.576 39.8096L116.917 39.2548C116.949 39.21 116.991 39.172 117.038 39.1427C117.084 39.1127 117.138 39.0972 117.194 39.098C117.304 39.1089 117.406 39.1565 117.485 39.2331C117.617 39.3399 117.753 39.4397 117.895 39.5322C118.082 39.6523 118.282 39.7522 118.491 39.8301C118.763 39.9271 119.052 39.9733 119.342 39.9664C119.596 39.9683 119.849 39.9275 120.089 39.8458C120.295 39.777 120.484 39.667 120.645 39.5226C120.796 39.3842 120.916 39.2146 120.995 39.0257C121.078 38.8206 121.119 38.6014 121.116 38.3804C121.126 38.1527 121.063 37.9278 120.936 37.7376C120.812 37.5661 120.651 37.4233 120.466 37.3191C120.255 37.1996 120.032 37.1033 119.8 37.0321L119.034 36.7908C118.774 36.7092 118.518 36.6138 118.268 36.505C118.025 36.4002 117.801 36.2577 117.603 36.0829C117.402 35.9017 117.241 35.6806 117.132 35.434C116.893 34.8409 116.893 34.1795 117.132 33.5863C117.251 33.3005 117.428 33.0419 117.652 32.8265C117.894 32.5957 118.18 32.4153 118.493 32.2959C118.861 32.1572 119.252 32.0897 119.645 32.0969C120.1 32.0911 120.551 32.1688 120.977 32.326C121.369 32.4736 121.727 32.6994 122.028 32.9893L121.751 33.5465Z" fill="white" stroke="white" stroke-miterlimit="10"/>
<path d="M129.664 32.2018V33.1847H126.85V40.8432H125.671V33.1787H122.845V32.2018H129.664Z" fill="white" stroke="white" stroke-miterlimit="10"/>
<path d="M134.289 39.9085C134.623 39.9148 134.954 39.8532 135.262 39.7276C135.536 39.6131 135.782 39.4402 135.981 39.2211C136.183 38.995 136.336 38.7302 136.431 38.4432C136.538 38.1222 136.59 37.7861 136.587 37.4482V32.2018H137.76V37.4482C137.763 37.9212 137.681 38.3911 137.517 38.8351C137.366 39.2462 137.132 39.6224 136.83 39.9411C136.522 40.2597 136.149 40.5097 135.736 40.6744C134.804 41.0282 133.774 41.0282 132.843 40.6744C132.43 40.5093 132.057 40.2594 131.749 39.9411C131.445 39.6233 131.21 39.2468 131.058 38.8351C130.894 38.3909 130.812 37.9212 130.815 37.4482V32.2018H131.988V37.4482C131.984 37.786 132.036 38.1222 132.143 38.4432C132.237 38.7302 132.39 38.995 132.592 39.2211C132.795 39.4419 133.044 39.6157 133.322 39.73C133.629 39.8548 133.958 39.9156 134.289 39.9085Z" fill="white" stroke="white" stroke-miterlimit="10"/>
<path d="M147.326 36.5195C147.334 37.1224 147.229 37.7216 147.016 38.2864C146.823 38.7961 146.525 39.2603 146.141 39.6492C145.756 40.0314 145.294 40.3293 144.786 40.5236C144.227 40.7366 143.633 40.8422 143.035 40.8348H139.778V32.2018H143.035C143.633 32.1946 144.227 32.2998 144.786 32.5117C145.295 32.7076 145.757 33.0076 146.141 33.3922C146.525 33.7829 146.823 34.2481 147.016 34.7586C147.228 35.3215 147.333 35.9186 147.326 36.5195ZM146.111 36.5195C146.118 36.0363 146.044 35.5553 145.892 35.0963C145.761 34.7039 145.55 34.3426 145.272 34.035C145.002 33.7442 144.67 33.5175 144.299 33.3717C143.895 33.2145 143.464 33.1366 143.029 33.1425H140.963V39.8904H143.029C143.464 39.8963 143.895 39.8185 144.299 39.6613C144.669 39.5159 145.002 39.29 145.272 39.0003C145.551 38.6945 145.762 38.3342 145.892 37.9426C146.046 37.484 146.122 37.003 146.117 36.5195H146.111Z" fill="white" stroke="white" stroke-miterlimit="10"/>
<path d="M150.327 40.8372H149.149V32.2018H150.329L150.327 40.8372Z" fill="white" stroke="white" stroke-miterlimit="10"/>
<path d="M160.751 36.5195C160.758 37.1271 160.653 37.7308 160.441 38.3008C160.248 38.8206 159.95 39.2958 159.566 39.6974C159.183 40.0915 158.72 40.4006 158.208 40.6044C157.08 41.0353 155.831 41.0353 154.703 40.6044C154.192 40.4 153.731 40.0909 153.348 39.6974C152.964 39.2958 152.666 38.8206 152.473 38.3008C152.06 37.1482 152.06 35.8895 152.473 34.7369C152.667 34.2169 152.964 33.741 153.348 33.3379C153.73 32.9426 154.192 32.6315 154.703 32.4249C155.831 31.9907 157.081 31.9907 158.208 32.4249C158.72 32.6309 159.183 32.942 159.566 33.3379C159.949 33.741 160.247 34.2169 160.441 34.7369C160.653 35.3074 160.758 35.9115 160.751 36.5195ZM159.535 36.5195C159.542 36.0344 159.468 35.5514 159.316 35.0903C159.186 34.6949 158.975 34.3303 158.696 34.0193C158.427 33.7265 158.094 33.497 157.724 33.3475C156.905 33.034 155.997 33.034 155.177 33.3475C154.808 33.4982 154.476 33.7275 154.205 34.0193C153.924 34.3295 153.712 34.6942 153.581 35.0903C153.29 36.0199 153.29 37.0155 153.581 37.945C153.712 38.34 153.924 38.7036 154.205 39.0124C154.475 39.3046 154.807 39.5333 155.177 39.6818C155.997 39.9921 156.904 39.9921 157.724 39.6818C158.095 39.5345 158.428 39.3056 158.696 39.0124C158.975 38.7027 159.186 38.3394 159.316 37.945C159.471 37.4856 159.547 37.0038 159.541 36.5195H159.535Z" fill="white" stroke="white" stroke-miterlimit="10"/>
</g>
<defs>
<clipPath id="clip0_647_462">
<rect width="161" height="41" fill="white"/>
</clipPath>
</defs>
</svg>
