<svg width="98" height="98" viewBox="0 0 98 98" fill="none" xmlns="http://www.w3.org/2000/svg">
<path d="M17.5719 7.87002e-06H80.6317C82.9029 -0.00218768 85.1523 0.455016 87.251 1.34545C89.3498 2.23589 91.2567 3.54208 92.8627 5.18926C94.4688 6.83645 95.7423 8.7923 96.6105 10.9449C97.4786 13.0974 97.9244 15.4045 97.9223 17.734V79.9071C97.9244 82.2365 97.4786 84.5436 96.6105 86.6962C95.7423 88.8487 94.4688 90.8046 92.8627 92.4518C91.2567 94.0989 89.3498 95.4051 87.251 96.2956C85.1523 97.186 82.9029 97.6432 80.6317 97.641H17.5719C15.3006 97.6432 13.0513 97.186 10.9525 96.2956C8.85374 95.4051 6.94679 94.0989 5.34078 92.4518C3.73478 90.8046 2.46124 88.8487 1.59307 86.6962C0.724891 84.5436 0.279117 82.2365 0.281258 79.9071V17.734C0.279117 15.4045 0.724891 13.0974 1.59307 10.9449C2.46124 8.7923 3.73478 6.83645 5.34078 5.18926C6.94679 3.54208 8.85374 2.23589 10.9525 1.34545C13.0513 0.455016 15.3006 -0.00218768 17.5719 7.87002e-06Z" fill="#F0F0F0"/>
<path d="M48.8853 85.4358C47.9046 85.4358 46.9306 85.1786 46.0709 84.6835L37.1124 79.3798C35.7744 78.6316 36.4273 78.3669 36.8686 78.2144C38.6526 77.5897 39.0147 77.4487 40.9189 76.3673C41.1191 76.2531 41.3811 76.2934 41.5859 76.4143L48.4681 80.4982C48.7167 80.6326 49.0693 80.6326 49.2997 80.4982L76.134 65.0089C76.3825 64.8678 76.5437 64.579 76.5437 64.2834V33.3182C76.5437 33.0092 76.3825 32.7338 76.1286 32.5793L49.3051 17.1034C49.0565 16.9557 48.7274 16.9557 48.4789 17.1034L21.6607 32.5793C21.4008 32.7271 21.2355 33.0159 21.2355 33.3115V64.2767C21.2355 64.5723 21.3967 64.8544 21.652 64.9954L29.0003 69.2406C32.9902 71.2355 35.4285 68.8846 35.4285 66.5202V35.958C35.4285 35.5214 35.771 35.1855 36.2076 35.1855H39.6064C40.0296 35.1855 40.3789 35.5214 40.3789 35.958V66.5336C40.3789 71.8535 37.4772 74.9097 32.4327 74.9097C30.8811 74.9097 29.6586 74.9097 26.2464 73.2304L19.207 69.1734C17.4673 68.1658 16.3926 66.2851 16.3926 64.2767V33.3115C16.3926 31.2964 17.4673 29.4156 19.207 28.4215L46.0682 12.9255C47.7676 11.9649 50.0245 11.9649 51.7104 12.9255L78.538 28.4282C80.271 29.4291 81.3524 31.3031 81.3524 33.3182V64.2834C81.3524 66.2918 80.271 68.1658 78.538 69.1734L51.7104 84.6694C50.8506 85.1665 49.8767 85.4217 48.8826 85.4217" fill="#689F63"/>
<path d="M57.1737 64.0988C45.4325 64.0988 42.9707 58.7091 42.9707 54.1885C42.9707 53.7586 43.3173 53.4161 43.7479 53.4161H47.2138C47.5967 53.4161 47.9191 53.6948 47.9795 54.073C48.5035 57.6048 50.0618 59.3861 57.1616 59.3861C62.8173 59.3861 65.222 58.1086 65.222 55.1094C65.222 53.3832 64.5369 52.1002 55.7511 51.2405C48.4027 50.515 43.8621 48.8962 43.8621 43.0189C43.8621 37.605 48.4296 34.3809 56.0802 34.3809C64.6712 34.3809 68.9298 37.3632 69.4671 43.7712C69.4873 43.9928 69.4067 44.2078 69.2589 44.369C69.1111 44.5235 68.9029 44.6175 68.688 44.6175H65.2019C64.8391 44.6175 64.5235 44.3623 64.4496 44.013C63.6099 40.2985 61.5814 39.1096 56.0668 39.1096C49.8939 39.1096 49.1752 41.259 49.1752 42.8711C49.1752 44.8258 50.0215 45.3967 58.3506 46.4983C66.599 47.5931 70.515 49.138 70.515 54.9348C70.515 60.7786 65.6385 64.1303 57.1348 64.1303L57.1737 64.0988Z" fill="#689F63"/>
</svg>
