<svg width="99" height="98" viewBox="0 0 99 98" fill="none" xmlns="http://www.w3.org/2000/svg">
<g clip-path="url(#clip0_1_8912)">
<path d="M18.0094 7.87002e-06H81.0692C83.3404 -0.00218768 85.5898 0.455016 87.6885 1.34545C89.7873 2.23589 91.6942 3.54208 93.3002 5.18926C94.9063 6.83645 96.1798 8.7923 97.048 10.9449C97.9161 13.0974 98.3619 15.4045 98.3598 17.734V79.9071C98.3619 82.2365 97.9161 84.5436 97.048 86.6962C96.1798 88.8487 94.9063 90.8046 93.3002 92.4518C91.6942 94.0989 89.7873 95.4051 87.6885 96.2956C85.5898 97.186 83.3404 97.6432 81.0692 97.641H18.0094C15.7381 97.6432 13.4888 97.186 11.39 96.2956C9.29124 95.4051 7.38429 94.0989 5.77828 92.4518C4.17228 90.8046 2.89874 88.8487 2.03057 86.6962C1.16239 84.5436 0.716617 82.2365 0.718758 79.9071V17.734C0.716617 15.4045 1.16239 13.0974 2.03057 10.9449C2.89874 8.7923 4.17228 6.83645 5.77828 5.18926C7.38429 3.54208 9.29124 2.23589 11.39 1.34545C13.4888 0.455016 15.7381 -0.00218768 18.0094 7.87002e-06Z" fill="#000B1D"/>
<g clip-path="url(#clip1_1_8912)">
<path d="M49.5382 55.2776C53.2872 55.2776 56.3263 52.2778 56.3263 48.5773C56.3263 44.8768 53.2872 41.877 49.5382 41.877C45.7892 41.877 42.75 44.8768 42.75 48.5773C42.75 52.2778 45.7892 55.2776 49.5382 55.2776Z" fill="#61DAFB"/>
<path fill-rule="evenodd" clip-rule="evenodd" d="M17.0396 44.396C15.3926 45.8636 14.7007 47.279 14.7007 48.5769C14.7007 49.8747 15.3926 51.2902 17.0396 52.7577C18.6865 54.2251 21.1586 55.6184 24.3484 56.8206C30.7172 59.2209 39.6227 60.7383 49.5384 60.7383C59.454 60.7383 68.3595 59.2209 74.7283 56.8206C77.9181 55.6184 80.3903 54.2251 82.0371 52.7577C83.6841 51.2902 84.376 49.8747 84.376 48.5769C84.376 47.279 83.6841 45.8636 82.0371 44.396C80.3903 42.9286 77.9181 41.5353 74.7283 40.3332C68.3595 37.9329 59.454 36.4155 49.5384 36.4155C39.6227 36.4155 30.7172 37.9329 24.3484 40.3332C21.1586 41.5353 18.6865 42.9286 17.0396 44.396ZM23.2165 37.4069C30.0307 34.8388 39.3374 33.2832 49.5384 33.2832C59.7393 33.2832 69.046 34.8388 75.8602 37.4069C79.2619 38.6889 82.124 40.2537 84.1635 42.071C86.2028 43.8881 87.5494 46.084 87.5494 48.5769C87.5494 51.0698 86.2028 53.2657 84.1635 55.0828C82.124 56.9001 79.2619 58.4648 75.8602 59.7468C69.046 62.315 59.7393 63.8706 49.5384 63.8706C39.3374 63.8706 30.0307 62.315 23.2165 59.7468C19.8148 58.4648 16.9527 56.9001 14.9132 55.0828C12.8739 53.2657 11.5273 51.0698 11.5273 48.5769C11.5273 46.084 12.8739 43.8881 14.9132 42.071C16.9527 40.2537 19.8148 38.6889 23.2165 37.4069Z" fill="#61DAFB"/>
<path fill-rule="evenodd" clip-rule="evenodd" d="M36.9572 18.7059C34.8461 18.0318 33.2582 18.1481 32.1195 18.797C30.9808 19.4459 30.0849 20.7451 29.6208 22.8868C29.1568 25.0282 29.1704 27.8381 29.7105 31.1659C30.789 37.8102 33.9104 46.1816 38.8682 54.6576C43.826 63.1337 49.6102 69.9876 54.9005 74.2317C57.5502 76.3573 60.0087 77.7739 62.1195 78.448C64.2307 79.1221 65.8185 79.0058 66.9572 78.3569C68.0959 77.708 68.9918 76.4088 69.4559 74.2671C69.92 72.1256 69.9063 69.3158 69.3662 65.9879C68.2877 59.3437 65.1663 50.9723 60.2085 42.4962C55.2507 34.0202 49.4666 27.1662 44.1762 22.9222C41.5266 20.7965 39.0681 19.38 36.9572 18.7059ZM46.1777 20.4915C51.838 25.0324 57.8562 32.2101 62.9567 40.9301C68.0572 49.6501 71.3457 58.3834 72.4995 65.4924C73.0756 69.0413 73.1337 72.2702 72.5591 74.9223C71.9844 77.5741 70.7311 79.8231 68.5439 81.0695C66.3566 82.316 63.7567 82.2629 61.1428 81.4282C58.5286 80.5934 55.7247 78.9292 52.899 76.6624C47.2387 72.1215 41.2205 64.9438 36.12 56.2238C31.0195 47.5038 27.7311 38.7705 26.5772 31.6614C26.0011 28.1126 25.943 24.8836 26.5177 22.2316C27.0923 19.5798 28.3456 17.3308 30.5328 16.0843C32.7201 14.8379 35.32 14.891 37.9339 15.7257C40.5481 16.5605 43.352 18.2247 46.1777 20.4915Z" fill="#61DAFB"/>
<path fill-rule="evenodd" clip-rule="evenodd" d="M69.4566 22.8861C68.9925 20.7444 68.0966 19.4452 66.9579 18.7963C65.8192 18.1473 64.2314 18.0311 62.1203 18.7052C60.0094 19.3793 57.5509 20.7958 54.9012 22.9215C49.6109 27.1655 43.8267 34.0194 38.8689 42.4955C33.9111 50.9716 30.7897 59.343 29.7112 65.9872C29.1711 69.3151 29.1575 72.1249 29.6215 74.2664C30.0856 76.4081 30.9815 77.7073 32.1202 78.3562C33.2589 79.0051 34.8468 79.1214 36.9579 78.4472C39.0688 77.7732 41.5273 76.3566 44.1769 74.231C49.4673 69.9869 55.2514 63.133 60.2092 54.6569C65.167 46.1808 68.2884 37.8095 69.3669 31.1652C69.907 27.8374 69.9207 25.0275 69.4566 22.8861ZM72.5003 31.6607C71.3464 38.7698 68.0579 47.503 62.9574 56.2231C57.8569 64.9431 51.8387 72.1208 46.1784 76.6617C43.3527 78.9285 40.5488 80.5927 37.9346 81.4275C35.3207 82.2621 32.7208 82.3153 30.5336 81.0688C28.3463 79.8224 27.093 77.5734 26.5184 74.9215C25.9437 72.2695 26.0018 69.0406 26.5779 65.4917C27.7318 58.3827 31.0202 49.6494 36.1207 40.9294C41.2212 32.2094 47.2394 25.0317 52.8997 20.4908C55.7254 18.224 58.5293 16.5598 61.1435 15.725C63.7575 14.8903 66.3573 14.8372 68.5446 16.0836C70.7318 17.3301 71.9851 19.5791 72.5598 22.2309C73.1344 24.8829 73.0763 28.1119 72.5003 31.6607Z" fill="#61DAFB"/>
</g>
</g>
<defs>
<clipPath id="clip0_1_8912">
<rect width="97.641" height="97.641" fill="white" transform="translate(0.71875)"/>
</clipPath>
<clipPath id="clip1_1_8912">
<rect width="76.16" height="66.8841" fill="white" transform="translate(11.459 15.1348)"/>
</clipPath>
</defs>
</svg>
