<svg width="98" height="98" viewBox="0 0 98 98" fill="none" xmlns="http://www.w3.org/2000/svg">
<path d="M17.2906 7.87002e-06H80.3504C82.6217 -0.00218768 84.871 0.455016 86.9698 1.34545C89.0685 2.23589 90.9755 3.54208 92.5815 5.18926C94.1875 6.83645 95.461 8.7923 96.3292 10.9449C97.1974 13.0974 97.6432 15.4045 97.641 17.734V79.9071C97.6432 82.2365 97.1974 84.5436 96.3292 86.6962C95.461 88.8487 94.1875 90.8046 92.5815 92.4518C90.9755 94.0989 89.0685 95.4051 86.9698 96.2956C84.871 97.186 82.6217 97.6432 80.3504 97.641H17.2906C15.0194 97.6432 12.77 97.186 10.6712 96.2956C8.57249 95.4051 6.66554 94.0989 5.05953 92.4518C3.45353 90.8046 2.17999 88.8487 1.31182 86.6962C0.443641 84.5436 -0.00213298 82.2365 7.67327e-06 79.9071V17.734C-0.00213298 15.4045 0.443641 13.0974 1.31182 10.9449C2.17999 8.7923 3.45353 6.83645 5.05953 5.18926C6.66554 3.54208 8.57249 2.23589 10.6712 1.34545C12.77 0.455016 15.0194 -0.00218768 17.2906 7.87002e-06Z" fill="#4D4D4E"/>
<path d="M71.8672 65.8785L27.0412 80.1047C27.0412 80.1047 23.8585 81.7727 24.6254 78.6859L24.5104 64.9774C24.5104 64.9774 23.9544 62.9642 26.7153 62.4657L44.9294 56.7714L71.8672 65.8785Z" fill="#F89820"/>
<path d="M71.8657 65.8789C71.8657 65.8789 73.6296 65.4571 73.1119 62.447L73.2078 49.2369C73.2078 49.2369 73.3612 47.5689 70.1977 46.8978L25.7743 32.5949C25.7743 32.5949 24.2788 32.0006 24.4514 33.8412L24.4322 48.5659C24.4322 48.5659 24.0104 50.0805 26.7713 51.0775L44.9279 56.7718L71.8657 65.8789Z" fill="#F89820"/>
<path d="M52.291 41.1465L71.1954 35.3755C71.1954 35.3755 73.4769 35.2988 73.2085 31.0233C72.9401 26.7477 73.2277 18.1391 73.2277 18.1391C73.2277 18.1391 73.036 16.5478 70.8503 17.4681L26.0243 31.771C26.0243 31.771 24.4329 32.1736 25.775 32.6146C27.1171 33.0364 52.291 41.1465 52.291 41.1465Z" fill="url(#paint0_linear_1_8930)"/>
<defs>
<linearGradient id="paint0_linear_1_8930" x1="70.6052" y1="25.9735" x2="25.261" y2="41.6622" gradientUnits="userSpaceOnUse">
<stop offset="0.233" stop-color="#F89822"/>
<stop offset="1" stop-color="#C27818"/>
</linearGradient>
</defs>
</svg>
