<svg width="98" height="98" viewBox="0 0 98 98" fill="none" xmlns="http://www.w3.org/2000/svg">
<path d="M17.65 7.87002e-06H80.7098C82.981 -0.00218768 85.2304 0.455016 87.3292 1.34545C89.4279 2.23589 91.3349 3.54208 92.9409 5.18926C94.5469 6.83645 95.8204 8.7923 96.6886 10.9449C97.5568 13.0974 98.0025 15.4045 98.0004 17.734V79.9071C98.0025 82.2365 97.5568 84.5436 96.6886 86.6962C95.8204 88.8487 94.5469 90.8046 92.9409 92.4518C91.3349 94.0989 89.4279 95.4051 87.3292 96.2956C85.2304 97.186 82.981 97.6432 80.7098 97.641H17.65C15.3787 97.6432 13.1294 97.186 11.0306 96.2956C8.93186 95.4051 7.02491 94.0989 5.41891 92.4518C3.8129 90.8046 2.53937 88.8487 1.67119 86.6962C0.803016 84.5436 0.357242 82.2365 0.359383 79.9071V17.734C0.357242 15.4045 0.803016 13.0974 1.67119 10.9449C2.53937 8.7923 3.8129 6.83645 5.41891 5.18926C7.02491 3.54208 8.93186 2.23589 11.0306 1.34545C13.1294 0.455016 15.3787 -0.00218768 17.65 7.87002e-06Z" fill="#000B1D"/>
<path d="M80.6436 22.2709L66.6899 15.5525C65.0748 14.7748 63.1446 15.1029 61.877 16.3704L16.1979 58.0191C14.9693 59.1392 14.9707 61.0736 16.201 62.1921L19.9322 65.5841C20.938 66.4985 22.4528 66.5658 23.5357 65.7443L78.5439 24.0139C80.3894 22.6139 83.04 23.9301 83.04 26.2465V26.0845C83.04 24.4585 82.1086 22.9763 80.6436 22.2709Z" fill="#0065A9"/>
<g filter="url(#filter0_d_1_8920)">
<path d="M80.6436 75.3712L66.6899 82.0897C65.0748 82.8674 63.1446 82.5393 61.877 81.2717L16.1979 39.6232C14.9693 38.5029 14.9707 36.5685 16.201 35.4501L19.9322 32.0581C20.938 31.1437 22.4528 31.0764 23.5357 31.8979L78.5439 73.6283C80.3894 75.0283 83.04 73.712 83.04 71.3957V71.5577C83.04 73.1836 82.1086 74.6658 80.6436 75.3712Z" fill="#007ACC"/>
</g>
<g filter="url(#filter1_d_1_8920)">
<path d="M66.6905 82.09C65.0748 82.8673 63.1446 82.5385 61.877 81.2708C63.4389 82.8327 66.1095 81.7265 66.1095 79.5176V18.1242C66.1095 15.9153 63.4389 14.8091 61.877 16.371C63.1446 15.1034 65.0748 14.7749 66.6905 15.5519L80.6417 22.2611C82.1077 22.966 83.0399 24.4488 83.0399 26.0755V71.5666C83.0399 73.1933 82.1077 74.6761 80.6416 75.3811L66.6905 82.09Z" fill="#1F9CF0"/>
</g>
<g style="mix-blend-mode:overlay" opacity="0.25">
<path style="mix-blend-mode:overlay" fill-rule="evenodd" clip-rule="evenodd" d="M63.2999 82.2192C64.3665 82.6347 65.5828 82.608 66.6593 82.09L80.602 75.3811C82.0671 74.6761 82.9988 73.1933 82.9988 71.5666V26.0755C82.9988 24.4488 82.0672 22.966 80.6021 22.261L66.6593 15.5519C65.2465 14.872 63.5929 15.0385 62.3529 15.94C62.1758 16.0688 62.007 16.2126 61.8487 16.371L35.157 40.7224L23.5307 31.897C22.4484 31.0754 20.9345 31.1428 19.9294 32.0571L16.2004 35.4492C14.9709 36.5677 14.9695 38.502 16.1974 39.6222L26.2801 48.8209L16.1974 58.0197C14.9695 59.1399 14.9709 61.0742 16.2004 62.1927L19.9294 65.5847C20.9345 66.4991 22.4484 66.5664 23.5307 65.7449L35.157 56.9195L61.8487 81.2708C62.271 81.6933 62.7667 82.0115 63.2999 82.2192ZM66.0787 33.4474L45.8259 48.8209L66.0787 64.1945V33.4474Z" fill="url(#paint0_linear_1_8920)"/>
</g>
<defs>
<filter id="filter0_d_1_8920" x="11.209" y="27.2558" width="75.8985" height="59.3204" filterUnits="userSpaceOnUse" color-interpolation-filters="sRGB">
<feFlood flood-opacity="0" result="BackgroundImageFix"/>
<feColorMatrix in="SourceAlpha" type="matrix" values="0 0 0 0 0 0 0 0 0 0 0 0 0 0 0 0 0 0 127 0" result="hardAlpha"/>
<feOffset/>
<feGaussianBlur stdDeviation="2.03419"/>
<feColorMatrix type="matrix" values="0 0 0 0 0 0 0 0 0 0 0 0 0 0 0 0 0 0 0.25 0"/>
<feBlend mode="overlay" in2="BackgroundImageFix" result="effect1_dropShadow_1_8920"/>
<feBlend mode="normal" in="SourceGraphic" in2="effect1_dropShadow_1_8920" result="shape"/>
</filter>
<filter id="filter1_d_1_8920" x="57.8086" y="11.0664" width="29.2989" height="75.5098" filterUnits="userSpaceOnUse" color-interpolation-filters="sRGB">
<feFlood flood-opacity="0" result="BackgroundImageFix"/>
<feColorMatrix in="SourceAlpha" type="matrix" values="0 0 0 0 0 0 0 0 0 0 0 0 0 0 0 0 0 0 127 0" result="hardAlpha"/>
<feOffset/>
<feGaussianBlur stdDeviation="2.03419"/>
<feColorMatrix type="matrix" values="0 0 0 0 0 0 0 0 0 0 0 0 0 0 0 0 0 0 0.25 0"/>
<feBlend mode="overlay" in2="BackgroundImageFix" result="effect1_dropShadow_1_8920"/>
<feBlend mode="normal" in="SourceGraphic" in2="effect1_dropShadow_1_8920" result="shape"/>
</filter>
<linearGradient id="paint0_linear_1_8920" x1="49.1381" y1="15.1348" x2="49.1381" y2="82.5071" gradientUnits="userSpaceOnUse">
<stop stop-color="white"/>
<stop offset="1" stop-color="white" stop-opacity="0"/>
</linearGradient>
</defs>
</svg>
